# Blender 4.4.1
# www.blender.org
mtllib Edit after cutting.mtl
o model
v -0.025179 -0.005245 -0.181094
v 0.037320 -0.238496 -0.181098
v -0.025180 -0.255243 -0.181099
v -0.087679 -0.238496 -0.181098
v 0.032690 -0.234935 -0.209219
v -0.025180 -0.250441 -0.209219
v -0.083049 -0.234935 -0.209219
v -0.083049 -0.234934 -0.240408
v -0.025180 -0.250440 -0.240408
v 0.032690 -0.234934 -0.240407
v -0.025180 -0.228450 -0.240407
v -0.025180 -0.228450 -0.219615
v 0.104838 0.101305 0.077206
v 0.104838 0.101308 -0.073878
v -0.173307 0.101308 -0.073878
v -0.173307 0.101306 0.077206
v 0.166973 0.106048 0.046068
v 0.184472 0.106048 0.050757
v 0.154162 0.106048 0.033257
v 0.149473 0.106048 0.015758
v 0.154162 0.106049 -0.001742
v 0.166973 0.106049 -0.014553
v 0.184472 0.106049 -0.019242
v 0.201972 0.106049 -0.014552
v 0.214783 0.106049 -0.001742
v 0.219472 0.106048 0.015758
v 0.214783 0.106048 0.033258
v 0.201972 0.106048 0.046068
v -0.219111 0.106721 -0.029749
v -0.217831 0.106652 -0.025131
v -0.217911 0.106808 -0.034389
v -0.214551 0.106889 -0.037806
v -0.209932 0.106943 -0.039086
v -0.205292 0.106955 -0.037885
v -0.201874 0.106923 -0.034525
v -0.200594 0.106854 -0.029907
v -0.201794 0.106767 -0.025268
v -0.205154 0.106686 -0.021850
v -0.209772 0.106632 -0.020571
v -0.214412 0.106620 -0.021771
v 0.031931 0.107794 0.044884
v 0.034057 0.107794 0.052820
v 0.039867 0.107794 0.058630
v 0.047803 0.107794 0.060757
v 0.055740 0.107794 0.058630
v 0.061550 0.107794 0.052820
v 0.063676 0.107794 0.044884
v 0.061550 0.107794 0.036948
v 0.055740 0.107794 0.031138
v 0.047803 0.107794 0.029011
v 0.039867 0.107794 0.031138
v 0.034057 0.107794 0.036948
v 0.031930 0.107794 0.044884
v 0.063676 0.107795 -0.038448
v 0.031931 0.107795 -0.038448
v 0.063677 0.107794 -0.038448
v 0.061550 0.107794 -0.046385
v 0.055740 0.107794 -0.052195
v 0.047804 0.107795 -0.054321
v 0.039867 0.107795 -0.052195
v 0.034057 0.107795 -0.046385
v -0.102989 0.107794 0.039593
v -0.102989 0.107795 -0.043740
v -0.134735 0.107795 -0.043740
v -0.134735 0.107794 0.039593
v -0.132609 0.107794 0.047529
v -0.126799 0.107794 0.053339
v -0.118862 0.107794 0.055466
v -0.110926 0.107794 0.053339
v -0.105116 0.107794 0.047530
v -0.102989 0.107794 0.039593
v -0.105116 0.107794 0.031657
v -0.110926 0.107794 0.025847
v -0.118862 0.107794 0.023720
v -0.126799 0.107794 0.025847
v -0.132609 0.107794 0.031657
v -0.134735 0.107795 -0.043740
v -0.105116 0.107795 -0.051676
v -0.110926 0.107795 -0.057486
v -0.118862 0.107795 -0.059612
v -0.126798 0.107795 -0.057486
v -0.132608 0.107795 -0.051676
v -0.245528 0.106047 0.036738
v -0.230528 0.106047 0.040757
v -0.256508 0.106047 0.025757
v -0.260527 0.106047 0.010758
v -0.256508 0.106048 -0.004242
v -0.245527 0.106048 -0.015223
v -0.230528 0.106048 -0.019242
v -0.215528 0.106048 -0.015223
v -0.204547 0.106047 -0.004242
v -0.200528 0.106047 0.010758
v -0.204547 0.106047 0.025757
v -0.215528 0.106047 0.036738
v -0.216565 0.011444 0.110361
v -0.216566 -0.253661 0.110359
v 0.162899 0.011443 0.110361
v 0.162899 -0.253662 0.110359
v -0.180517 -0.228476 0.110359
v 0.126850 -0.228477 0.110359
v -0.180517 -0.228477 0.099963
v 0.126850 -0.228477 0.099963
v 0.194472 -0.133952 0.100757
v 0.181972 -0.137302 0.100757
v 0.172821 -0.146452 0.100757
v 0.169472 -0.158952 0.100757
v 0.172821 -0.171452 0.100757
v 0.181972 -0.180603 0.100756
v 0.194472 -0.183952 0.100756
v 0.206972 -0.180603 0.100756
v 0.216122 -0.171452 0.100757
v 0.219472 -0.158952 0.100757
v 0.216122 -0.146452 0.100757
v 0.206972 -0.137302 0.100757
v 0.184472 -0.093952 0.100757
v 0.176972 -0.095961 0.100757
v 0.171481 -0.101452 0.100757
v 0.169472 -0.108952 0.100757
v 0.171481 -0.116452 0.100756
v 0.176972 -0.121942 0.100756
v 0.184472 -0.123952 0.100756
v 0.191972 -0.121942 0.100756
v 0.197462 -0.116452 0.100756
v 0.199472 -0.108952 0.100757
v 0.197462 -0.101452 0.100757
v 0.191972 -0.095962 0.100757
v 0.219075 -0.113159 0.100757
v 0.213877 -0.114552 0.100757
v 0.210072 -0.118357 0.100757
v 0.208679 -0.123555 0.100757
v 0.210072 -0.128754 0.100757
v 0.213877 -0.132559 0.100757
v 0.219075 -0.133952 0.100757
v 0.224273 -0.132559 0.100757
v 0.228079 -0.128754 0.100757
v 0.229472 -0.123555 0.100757
v 0.228079 -0.118357 0.100757
v 0.224273 -0.114552 0.100757
v 0.253657 -0.286994 -0.088879
v 0.253657 -0.286998 0.092205
v 0.253657 -0.244695 0.092206
v 0.253657 -0.244691 -0.088878
v -0.288931 -0.286993 -0.088879
v -0.288931 -0.244690 -0.088878
v -0.288931 -0.244694 0.092206
v -0.288931 -0.286997 0.092205
v 0.253657 -0.214695 0.092207
v 0.253657 -0.214691 -0.088877
v -0.288931 -0.214694 0.092206
v -0.288931 -0.214691 -0.088878
v 0.253657 -0.044695 0.092210
v 0.253657 -0.044691 -0.088874
v -0.288930 -0.044693 0.092210
v -0.288930 -0.044690 -0.088875
v 0.253657 -0.024695 0.092210
v 0.253657 -0.024691 -0.088874
v -0.288930 -0.024693 0.092210
v -0.288930 -0.024690 -0.088874
v -0.214857 -0.024690 -0.088874
v 0.253657 0.085305 0.092212
v 0.253657 0.085309 -0.088871
v -0.288930 0.085306 0.092212
v -0.288930 0.085309 -0.088872
v -0.214857 0.010310 -0.088873
v -0.214857 0.075310 -0.088873
v -0.214856 0.085309 -0.088872
v -0.080783 0.085309 -0.088872
v -0.062636 0.085309 -0.088872
v 0.045511 0.085309 -0.088872
v 0.045510 0.010309 -0.088873
v -0.062636 0.010309 -0.088873
v -0.062636 0.075309 -0.088873
v -0.080783 0.075310 -0.088873
v -0.080783 0.010310 -0.088873
v 0.045511 0.075309 -0.088872
v 0.045511 0.075309 -0.068872
v 0.045511 0.010309 -0.068873
v -0.062636 0.075310 -0.068872
v -0.062636 0.010310 -0.068873
v 0.003367 0.052000 -0.068873
v 0.003367 0.033619 -0.068872
v -0.020493 0.052001 -0.068873
v -0.020493 0.033619 -0.068872
v 0.003367 0.051999 -0.048873
v 0.003367 0.033617 -0.048872
v -0.020493 0.051999 -0.048873
v -0.020493 0.033617 -0.048872
v -0.214857 0.075311 -0.078873
v -0.080783 0.075311 -0.078873
v -0.214857 0.010311 -0.078874
v -0.080783 0.010310 -0.078873
v -0.202119 0.069136 -0.078873
v -0.093520 0.069136 -0.078873
v -0.202120 0.016485 -0.078873
v -0.093520 0.016485 -0.078873
v -0.202119 0.069135 -0.068873
v -0.093520 0.069135 -0.068873
v -0.202120 0.016485 -0.068873
v -0.093520 0.016485 -0.068873
v -0.179883 0.058355 -0.068873
v -0.115756 0.058355 -0.068873
v -0.179883 0.027266 -0.068873
v -0.115756 0.027266 -0.068873
v -0.179883 0.058355 -0.048873
v -0.115756 0.058355 -0.048873
v -0.179883 0.027266 -0.048873
v -0.115756 0.027265 -0.048873
v 0.006235 -0.013665 -0.060725
v 0.006236 -0.013665 -0.088874
v 0.006242 -0.013665 -0.181094
v -0.025179 -0.005247 -0.088873
v 0.037320 -0.238498 -0.088878
v 0.048772 -0.227047 -0.060729
v 0.048771 -0.227047 -0.088878
v 0.048770 -0.227047 -0.181098
v 0.014208 -0.244691 -0.088878
v -0.025180 -0.255245 -0.088878
v -0.064567 -0.244691 -0.088878
v -0.087679 -0.238498 -0.088878
v -0.099131 -0.227047 -0.060729
v -0.099130 -0.227047 -0.088878
v -0.099129 -0.227047 -0.181098
v -0.056594 -0.013665 -0.060725
v -0.056595 -0.013665 -0.088874
v -0.056601 -0.013665 -0.181094
v -0.025180 -0.250441 -0.181099
v 0.032690 -0.234935 -0.181098
v 0.040579 -0.227047 -0.181098
v -0.090938 -0.227047 -0.181098
v -0.083049 -0.234935 -0.181098
v 0.112961 0.085306 0.048854
v 0.112961 0.085306 0.077206
v 0.112961 0.085308 -0.073878
v 0.112961 0.085307 0.011661
v -0.181431 0.085306 0.077205
v -0.181430 0.085309 -0.073879
v -0.181431 0.085308 -0.001311
v -0.181431 0.085308 0.006189
v -0.134735 0.101308 -0.043740
v -0.134735 0.101308 -0.043740
v -0.134735 0.101306 0.039593
v -0.134735 0.101306 0.039592
v -0.132608 0.101308 -0.051676
v -0.134735 0.101308 -0.043740
v -0.132609 0.101306 0.047529
v -0.126799 0.101306 0.053339
v -0.118862 0.101306 0.055466
v -0.105116 0.101306 0.047529
v -0.102989 0.101306 0.039593
v -0.102989 0.101306 0.039593
v -0.102989 0.101306 0.039593
v 0.031930 0.101306 0.044884
v 0.031931 0.101306 0.044884
v 0.039867 0.101306 0.058630
v 0.055740 0.101306 0.058630
v 0.047803 0.101306 0.060757
v 0.034057 0.101306 0.052820
v -0.110926 0.101306 0.053339
v -0.134735 0.101308 -0.043740
v -0.134735 0.101308 -0.043739
v -0.126798 0.101308 -0.057486
v -0.118862 0.101308 -0.059613
v -0.105116 0.101308 -0.051676
v -0.110926 0.101308 -0.057486
v 0.031930 0.101308 -0.038449
v -0.102989 0.101308 -0.043740
v 0.034057 0.101308 -0.046385
v 0.039867 0.101308 -0.052195
v -0.102989 0.101308 -0.043740
v 0.047804 0.101308 -0.054321
v 0.055740 0.101308 -0.052195
v 0.063676 0.101306 0.044884
v 0.061550 0.101308 -0.046385
v 0.063677 0.101308 -0.038448
v 0.063676 0.101306 0.044883
v 0.061550 0.101306 0.052820
v 0.031931 0.101308 -0.038449
v 0.063676 0.101308 -0.038447
v -0.081373 0.085309 -0.073879
v 0.062745 0.085308 -0.073878
v -0.218961 0.085308 -0.030110
v -0.217681 0.085308 -0.025491
v -0.217760 0.085308 -0.034751
v -0.214400 0.085308 -0.038170
v -0.209781 0.085308 -0.039451
v -0.205141 0.085308 -0.038250
v -0.201723 0.085308 -0.034890
v -0.200443 0.085308 -0.030270
v -0.201644 0.085308 -0.025630
v -0.205004 0.085308 -0.022211
v -0.209623 0.085308 -0.020930
v -0.214263 0.085308 -0.022131
v 0.031931 0.107794 0.044884
v 0.031931 0.107794 0.044884
v 0.061550 0.107794 0.036948
v 0.063676 0.107794 0.044884
v 0.055740 0.107794 0.031138
v 0.047803 0.107794 0.029011
v 0.039867 0.107794 0.031138
v 0.034057 0.107794 0.036948
v 0.031931 0.107794 -0.038448
v 0.063676 0.107794 -0.038448
v 0.063676 0.107794 -0.038447
v -0.102989 0.107794 0.039593
v -0.134735 0.103615 -0.043740
v -0.134735 0.107795 -0.043740
v -0.102989 0.107795 -0.043740
v -0.132609 0.107794 0.031657
v -0.134735 0.107794 0.039592
v -0.118862 0.107794 0.023720
v -0.126799 0.107794 0.025847
v -0.110926 0.107794 0.025847
v -0.105116 0.107794 0.031657
v -0.134735 0.107795 -0.043739
v -0.245528 0.085307 0.036738
v -0.230528 0.085307 0.040757
v -0.256508 0.085307 0.025757
v -0.260527 0.085308 0.010757
v -0.256508 0.085308 -0.004242
v -0.245527 0.085308 -0.015223
v -0.230528 0.085308 -0.019242
v -0.215528 0.085308 -0.015223
v -0.204547 0.085308 -0.004242
v -0.211732 0.085308 -0.011427
v -0.203158 0.085308 0.000942
v -0.200528 0.085308 0.010757
v -0.204547 0.085307 0.025757
v -0.202117 0.085307 0.016686
v -0.215528 0.085307 0.036738
v -0.216566 -0.253661 0.092206
v -0.216566 -0.244694 0.092206
v 0.162899 -0.244695 0.092206
v 0.162899 -0.253662 0.092206
v -0.216565 0.011444 0.092211
v -0.216565 -0.024694 0.092210
v -0.182472 -0.013665 0.092210
v 0.162899 0.011444 0.092211
v 0.162899 -0.024694 0.092210
v 0.127603 -0.013665 0.092211
v 0.184472 0.085307 -0.019242
v 0.166973 0.085307 -0.014553
v 0.154162 0.085307 -0.001742
v 0.201972 0.085306 0.046068
v 0.219472 0.085307 0.015758
v 0.214783 0.085307 -0.001742
v 0.201972 0.085307 -0.014553
v 0.214783 0.085306 0.033257
v 0.154162 0.085306 0.033257
v 0.158822 0.085306 0.037917
v 0.184472 0.085306 0.050757
v 0.149473 0.085307 0.015757
v 0.166973 0.085306 0.046068
v 0.045510 -0.013665 -0.088873
v -0.062636 -0.013665 -0.088874
v -0.080783 -0.013665 -0.088874
v 0.127603 -0.013665 -0.088873
v 0.127603 -0.024691 -0.088874
v -0.182472 -0.024690 -0.088874
v -0.182472 -0.013665 -0.088874
v 0.040580 -0.227047 -0.097765
v 0.040579 -0.227047 -0.209219
v -0.090939 -0.227047 -0.097766
v -0.090937 -0.227047 -0.209219
v -0.090937 -0.227047 -0.240407
v 0.040578 -0.227047 -0.240407
v -0.078496 -0.227047 -0.240407
v -0.030416 -0.227047 -0.240407
v -0.019943 -0.227047 -0.240407
v 0.028136 -0.227047 -0.240407
v -0.030417 -0.227047 -0.219615
v -0.019942 -0.227047 -0.219615
v -0.025180 -0.227047 -0.219615
v 0.127603 -0.227047 -0.040387
v 0.127603 -0.013665 -0.040385
v -0.182472 -0.227047 -0.040387
v -0.182472 -0.013665 -0.040385
v -0.216565 -0.044694 0.092210
v -0.216566 -0.214694 0.092206
v 0.162899 -0.120803 0.092209
v 0.162899 -0.214695 0.092207
v 0.162899 -0.073130 0.092209
v 0.162899 -0.044694 0.092210
v -0.182472 -0.013665 0.110361
v -0.180517 -0.227047 0.110359
v -0.180626 -0.013665 0.110361
v -0.182472 -0.227047 0.110359
v 0.126960 -0.013665 0.110361
v 0.127603 -0.227047 0.110359
v 0.126850 -0.227047 0.110359
v 0.127603 -0.013665 0.110361
v -0.180517 -0.227047 0.099963
v 0.126850 -0.227047 0.099963
v 0.181972 -0.137302 0.092208
v 0.194472 -0.133952 0.092208
v 0.172821 -0.146452 0.092208
v 0.169472 -0.158952 0.092208
v 0.172821 -0.171452 0.092208
v 0.181972 -0.180603 0.092207
v 0.194472 -0.183952 0.092207
v 0.206972 -0.180603 0.092207
v 0.216122 -0.171452 0.092208
v 0.219472 -0.158952 0.092208
v 0.216122 -0.146452 0.092208
v 0.208536 -0.138866 0.092208
v 0.206972 -0.137302 0.092208
v 0.176972 -0.095961 0.092209
v 0.184472 -0.093952 0.092209
v 0.171481 -0.101452 0.092209
v 0.169472 -0.108952 0.092209
v 0.171481 -0.116452 0.092209
v 0.176972 -0.121942 0.092209
v 0.184472 -0.123952 0.092209
v 0.191972 -0.121942 0.092209
v 0.197462 -0.116452 0.092209
v 0.199472 -0.108952 0.092209
v 0.197462 -0.101452 0.092209
v 0.191972 -0.095961 0.092209
v 0.213877 -0.114552 0.092209
v 0.219075 -0.113159 0.092209
v 0.210072 -0.118357 0.092209
v 0.208679 -0.123555 0.092209
v 0.210072 -0.128754 0.092208
v 0.213877 -0.132559 0.092208
v 0.219075 -0.133952 0.092208
v 0.224273 -0.132559 0.092208
v 0.228079 -0.128754 0.092208
v 0.229472 -0.123555 0.092209
v 0.228079 -0.118357 0.092209
v 0.224273 -0.114552 0.092209
v -0.182472 -0.227047 0.092206
v 0.127603 -0.227047 0.092206
v -0.182472 -0.214691 -0.088878
v 0.127603 -0.227047 -0.088878
v 0.127603 -0.214691 -0.088877
v -0.182472 -0.227047 -0.088878
v -0.182472 -0.044690 -0.088874
v 0.127603 -0.044691 -0.088874
vn 0.2588 0.9659 -0.0000
vn -0.0000 0.7572 -0.6532
vn 0.1239 0.4626 -0.8779
vn 0.3786 -0.6557 -0.6532
vn 0.7071 -0.7071 -0.0000
vn 0.3922 -0.3922 -0.8321
vn -0.0000 -0.7572 -0.6532
vn 0.2588 -0.9659 -0.0000
vn 0.1830 -0.6830 -0.7071
vn -0.3786 -0.6557 -0.6532
vn -0.2588 -0.9659 -0.0000
vn -0.1830 -0.6829 -0.7072
vn -0.7071 -0.7071 -0.0000
vn -0.3922 -0.3922 -0.8321
vn -0.1239 0.4626 -0.8779
vn -0.2588 0.9659 -0.0000
vn -0.0000 -0.0000 -1.0000
vn 0.4838 0.7882 -0.3803
vn 0.8917 0.4527 -0.0000
vn 0.4838 0.7882 0.3803
vn 0.5231 0.8523 -0.0000
vn -0.4838 0.7882 0.3803
vn -0.8917 0.4527 -0.0000
vn -0.4838 0.7882 -0.3803
vn -0.5231 0.8523 -0.0000
vn -0.4905 0.5924 0.6392
vn -0.5774 0.5773 0.5774
vn -0.5773 0.5774 -0.5774
vn -0.4904 0.5924 -0.6392
vn -0.6557 0.6532 -0.3786
vn -0.3786 0.6532 -0.6557
vn -0.0000 0.6532 -0.7572
vn 0.3786 0.6532 -0.6557
vn 0.5523 0.7703 -0.3188
vn -0.0000 1.0000 -0.0000
vn -0.5523 0.7703 -0.3188
vn 0.6557 0.6532 -0.3786
vn 0.4903 0.5925 -0.6392
vn 0.5772 0.5774 -0.5774
vn 0.5774 0.5773 0.5774
vn 0.6548 0.5657 0.5012
vn 0.7570 0.6535 -0.0009
vn 0.6557 0.6532 0.3786
vn 0.3786 0.6532 0.6557
vn -0.0000 0.6532 0.7572
vn -0.3786 0.6532 0.6557
vn -0.5523 0.7703 0.3189
vn 0.5523 0.7703 0.3189
vn -0.6557 0.6532 0.3786
vn -0.7617 0.6480 0.0031
vn -0.7303 0.6764 -0.0961
vn -0.5773 0.5774 0.5774
vn -0.6131 0.6347 0.4704
vn -0.7575 0.6529 -0.0012
vn -0.7282 0.6785 -0.0971
vn -0.7297 0.6766 0.0991
vn 0.7568 0.6537 -0.0002
vn 0.7276 0.6793 0.0956
vn 0.7281 0.6787 -0.0962
vn 0.7574 0.6530 -0.0004
vn -0.0000 0.7071 -0.7071
vn -0.0000 -0.0000 1.0000
vn -0.6585 0.6459 0.3861
vn -0.9636 -0.0113 0.2670
vn -0.7602 0.6497 0.0044
vn -0.9681 -0.0026 -0.2505
vn -0.6570 0.6544 -0.3744
vn -0.7132 0.0068 -0.7010
vn -0.3803 0.6587 -0.6493
vn -0.2672 0.0144 -0.9635
vn -0.0056 0.6615 -0.7499
vn 0.2505 0.0181 -0.9680
vn 0.3689 0.6621 -0.6523
vn 0.7010 0.0169 -0.7130
vn 0.6464 0.6604 -0.3821
vn 0.9636 0.0113 -0.2670
vn 0.7540 0.6568 -0.0085
vn 0.9681 0.0026 0.2505
vn 0.6609 0.6522 0.3714
vn 0.7132 -0.0068 0.7010
vn 0.3882 0.6478 0.6555
vn 0.2672 -0.0144 0.9635
vn 0.0063 0.7650 0.6440
vn -0.2505 -0.0181 0.9680
vn -0.3177 0.7646 0.5608
vn -0.7010 -0.0169 0.7130
vn -0.0070 0.9998 0.0169
vn -0.9659 -0.0000 0.2588
vn -0.7566 0.6539 -0.0035
vn -0.5388 0.4653 0.7022
vn -0.7071 -0.0000 0.7071
vn -0.2588 -0.0000 0.9659
vn 0.2588 -0.0000 0.9659
vn 0.7071 -0.0000 0.7071
vn 0.9659 -0.0000 0.2588
vn 0.6547 0.6532 -0.3803
vn 0.9657 -0.0007 -0.2598
vn 0.9879 0.0834 -0.1306
vn 0.3725 0.6537 -0.6587
vn 0.7041 -0.0000 -0.7101
vn -0.0052 0.6526 -0.7577
vn 0.2457 -0.0000 -0.9694
vn -0.3752 0.6527 -0.6582
vn -0.2590 -0.0000 -0.9659
vn -0.6517 0.6533 -0.3852
vn -0.6991 -0.0000 -0.7150
vn -0.9635 -0.0000 -0.2677
vn 0.0002 -0.0000 -1.0000
vn 0.5774 0.5773 -0.5773
vn -0.5389 0.4650 -0.7024
vn 1.0000 -0.0000 -0.0000
vn 0.9880 0.0838 0.1298
vn -1.0000 -0.0000 -0.0000
vn 0.9660 -0.0000 0.2584
vn 0.9659 -0.0000 -0.2588
vn 0.7071 -0.0000 -0.7071
vn 0.2588 -0.0000 -0.9659
vn -0.2588 -0.0000 -0.9659
vn -0.7071 -0.0000 -0.7071
vn -0.9659 -0.0000 -0.2588
vn 0.5732 0.6921 0.4387
vn -0.0004 -0.0000 -1.0000
vn 0.5388 0.4650 -0.7025
vn -0.5775 0.5773 -0.5773
vn 1.0000 0.0001 -0.0000
vn -0.9877 0.0838 -0.1317
vn -0.6586 0.6523 -0.3751
vn -0.3818 0.6542 -0.6529
vn 0.0007 0.6529 -0.7574
vn 0.3823 0.6541 -0.6527
vn 0.6588 0.6521 -0.3751
vn -0.9874 0.0842 0.1341
vn 0.9653 -0.0012 -0.2612
vn 0.7174 -0.0000 -0.6967
vn 0.2567 -0.0000 -0.9665
vn -0.2550 -0.0000 -0.9669
vn -0.7176 -0.0000 -0.6964
vn -0.9651 -0.0000 -0.2620
vn -0.9638 -0.0000 0.2668
vn 0.5000 -0.0000 -0.8661
vn -0.5001 -0.0000 -0.8660
vn -0.7572 0.6532 -0.0000
vn 0.5000 -0.0000 -0.8660
vn 0.3189 0.7703 -0.5523
vn 0.5000 0.7071 -0.5000
vn 0.6830 0.7071 -0.1830
vn 0.7572 0.6532 -0.0000
vn 0.6830 0.7071 0.1830
vn -0.0000 -1.0000 -0.0000
vn -0.5773 -0.5774 0.5773
vn 0.5773 -0.5774 0.5773
vn -0.6377 0.7703 -0.0000
vn -0.5000 0.7071 0.5000
vn -0.3786 0.6557 0.6532
vn -0.0000 0.6377 0.7703
vn -0.6557 0.3786 0.6532
vn -0.7071 0.7071 -0.0000
vn -0.8660 0.5000 -0.0000
vn -0.9659 0.2588 -0.0000
vn -0.7572 -0.0000 0.6532
vn -1.0000 -0.0001 -0.0000
vn -0.9659 -0.2588 -0.0000
vn -0.6557 -0.3786 0.6532
vn -0.3786 -0.6557 0.6532
vn -0.0000 -0.7572 0.6532
vn 0.3786 -0.6557 0.6532
vn 0.6557 -0.3786 0.6532
vn 0.7572 -0.0000 0.6532
vn 0.9659 -0.2588 -0.0000
vn 0.6557 0.3786 0.6532
vn 0.9659 0.2588 -0.0000
vn 0.3786 0.6557 0.6532
vn 0.7071 0.7071 -0.0000
vn 0.5000 0.4999 0.7072
vn 0.5000 0.8661 -0.0000
vn -0.3189 0.5523 0.7703
vn -0.0000 0.7572 0.6532
vn -0.8661 0.5000 -0.0000
vn -0.5523 -0.3189 0.7703
vn 0.3189 -0.5523 0.7703
vn 0.5523 -0.3189 0.7703
vn -0.5000 0.8660 -0.0000
vn -0.5523 0.3189 0.7703
vn -0.8660 -0.5000 -0.0000
vn -0.3189 -0.5523 0.7703
vn -0.0000 -1.0000 -0.0001
vn -0.0000 1.0000 0.0001
vn -0.0000 -1.0000 0.0001
vn -0.0000 1.0000 -0.0001
vt 0.000000 0.000000
vt 0.612082 0.152554
vt 0.625000 0.152554
vt 0.625000 0.136713
vt 0.375000 0.136713
vt 0.375000 0.152555
vt 0.389476 0.152555
vt 0.588650 0.152554
vt 0.625000 0.093395
vt 0.375000 0.093396
vt 0.625000 0.087465
vt 0.375000 0.087465
vt 0.625000 0.597447
vt 0.612082 0.597446
vt 0.588649 0.597446
vt 0.389476 0.597445
vt 0.375000 0.597445
vt 0.375000 0.613287
vt 0.625000 0.613287
vt 0.625000 0.656606
vt 0.375000 0.656604
vt 0.375000 0.662535
vt 0.625000 0.662535
vt 0.198801 0.500000
vt 0.198801 0.500000
vt 0.198800 0.500000
vt 0.304836 0.500000
vt 0.304836 0.500000
vt 0.304836 0.500000
vt 0.294804 0.500000
vt 0.256040 0.500000
vt 0.256041 0.500000
vt 0.251818 0.500000
vt 0.247596 0.500000
vt 0.247596 0.500000
vt 0.208832 0.500000
vt 0.375000 0.500000
vt 0.125000 0.750000
vt 0.374393 0.500000
vt 0.126577 0.500000
vt 0.126577 0.500000
vt 0.374393 0.500000
vt 0.304838 0.500000
vt 0.198799 0.500000
vt 0.311442 0.500000
vt 0.311440 0.500000
vt 0.192196 0.500000
vt 0.192195 0.500000
vt 0.311442 0.500000
vt 0.192195 0.500000
vt 0.875000 0.500000
vt 0.625000 0.750000
vt 0.625518 0.500000
vt 0.873511 0.500000
vt 0.773510 0.500000
vt 0.722854 0.500000
vt 0.722852 0.500000
vt 0.691188 0.500000
vt 0.793013 0.500000
vt 0.778382 0.500000
vt 0.773511 0.500000
vt 0.722848 0.500000
vt 0.773516 0.500000
s 1
usemtl mat15.001
f 210/1/1 1/1/1 211/1/2 209/1/3
f 212/1/4 2/1/5 215/1/5 214/1/6
f 217/1/7 3/1/8 2/1/8 212/1/4 216/1/9
f 219/1/10 4/1/11 3/1/11 217/1/7 218/1/12
f 222/1/13 4/1/13 219/1/10 221/1/14
f 224/1/15 211/1/2 1/1/16 225/1/16
f 210/1/17 225/1/17 1/1/17
f 215/1/17 2/1/17 3/1/17 4/1/17 222/1/17 229/1/14 230/1/10 226/1/7 227/1/4 228/1/6
f 233/1/18 14/1/19 13/1/19 232/1/20 231/1/21 234/1/21
f 235/1/22 16/1/23 15/1/23 236/1/24 237/1/25 238/1/25
f 253/1/26 252/1/27 265/1/28 277/1/29 267/1/30 268/1/31 270/1/32 271/1/33 273/1/34 14/1/35 15/1/35 243/1/36 261/1/31 262/1/32 264/1/33 263/1/37 269/1/38 266/1/39 249/1/40 251/1/41 250/1/42 248/1/43 258/1/44 247/1/45 246/1/46 245/1/47 16/1/35 13/1/35 276/1/48 255/1/44 256/1/45 254/1/46 257/1/49
f 240/1/50 259/1/51 239/1/52 244/1/53 243/1/36 15/1/35 16/1/35 245/1/47 241/1/54 242/1/55 260/1/56
f 276/1/48 13/1/35 14/1/35 273/1/34 274/1/57 278/1/58 275/1/59 272/1/60
f 236/1/24 15/1/17 14/1/17 233/1/18 280/1/61 279/1/61
f 232/1/20 13/1/62 16/1/62 235/1/22
f 282/1/63 30/1/64 29/1/64 281/1/65
f 281/1/65 29/1/66 31/1/66 283/1/67
f 283/1/67 31/1/68 32/1/68 284/1/69
f 32/1/70 33/1/70 285/1/71 284/1/69
f 33/1/72 34/1/72 286/1/73 285/1/71
f 34/1/74 35/1/74 287/1/75 286/1/73
f 287/1/75 35/1/76 36/1/76 288/1/77
f 288/1/77 36/1/78 37/1/78 289/1/79
f 289/1/79 37/1/80 38/1/80 290/1/81
f 290/1/81 38/1/82 39/1/82 291/1/83
f 291/1/83 39/1/84 40/1/84 292/1/85
f 292/1/85 40/1/86 30/1/86 282/1/63
f 38/1/87 37/1/87 36/1/87 35/1/87 34/1/87 33/1/87 32/1/87 31/1/87 29/1/87 30/1/87 40/1/87 39/1/87
f 257/1/49 42/1/88 41/1/88 294/1/89 293/1/90 253/1/26
f 254/1/46 43/1/91 42/1/91 257/1/49
f 256/1/45 44/1/92 43/1/92 254/1/46
f 255/1/44 45/1/93 44/1/93 256/1/45
f 276/1/48 46/1/94 45/1/94 255/1/44
f 272/1/60 47/1/95 46/1/95 276/1/48
f 295/1/96 48/1/97 47/1/97 272/1/60 275/1/59 296/1/98
f 297/1/99 49/1/100 48/1/100 295/1/96
f 298/1/101 50/1/102 49/1/102 297/1/99
f 299/1/103 51/1/104 50/1/104 298/1/101
f 300/1/105 52/1/106 51/1/106 299/1/103
f 294/1/89 41/1/107 52/1/107 300/1/105
f 42/1/35 43/1/35 44/1/35 45/1/35 46/1/35 47/1/35 48/1/35 49/1/35 50/1/35 51/1/35 52/1/35 41/1/35
f 53/1/62 252/1/27 253/1/26 293/1/90
f 277/1/29 265/1/28 55/1/108 54/1/108 302/1/109 301/1/110
f 54/1/35 55/1/35 53/1/35 293/1/90 294/1/89 300/1/105 299/1/103 298/1/101 297/1/99 295/1/96 296/1/98
f 302/1/109 54/1/111 296/1/98 275/1/59 278/1/58 303/1/112
f 252/1/27 53/1/113 55/1/113 265/1/28
f 278/1/58 274/1/57 56/1/114 303/1/112
f 273/1/34 57/1/115 56/1/115 274/1/57
f 271/1/33 58/1/116 57/1/116 273/1/34
f 270/1/32 59/1/117 58/1/117 271/1/33
f 268/1/31 60/1/118 59/1/118 270/1/32
f 267/1/30 61/1/119 60/1/119 268/1/31
f 61/1/120 267/1/30 277/1/29 301/1/110
f 302/1/109 303/1/112 56/1/35 57/1/35 58/1/35 59/1/35 60/1/35 61/1/35 301/1/110
f 249/1/40 62/1/62 304/1/121 251/1/41
f 64/1/122 63/1/122 266/1/39 269/1/38 307/1/123 306/1/124
f 305/1/125 244/1/53 239/1/52
f 304/1/121 62/1/35 63/1/35 64/1/35 309/1/126 308/1/127 311/1/128 310/1/129 312/1/130 313/1/131
f 266/1/39 63/1/111 62/1/111 249/1/40
f 314/1/132 260/1/56 242/1/55 309/1/126 64/1/113 306/1/124
f 239/1/52 259/1/51 305/1/125
f 245/1/47 66/1/88 65/1/88 241/1/54
f 246/1/46 67/1/91 66/1/91 245/1/47
f 247/1/45 68/1/92 67/1/92 246/1/46
f 258/1/44 69/1/93 68/1/93 247/1/45
f 248/1/43 70/1/94 69/1/94 258/1/44
f 250/1/42 71/1/95 70/1/95 248/1/43
f 313/1/131 72/1/133 71/1/133 250/1/42 251/1/41 304/1/121
f 312/1/130 73/1/134 72/1/134 313/1/131
f 310/1/129 74/1/135 73/1/135 312/1/130
f 311/1/128 75/1/136 74/1/136 310/1/129
f 308/1/127 76/1/137 75/1/137 311/1/128
f 242/1/55 241/1/54 65/1/138 76/1/138 308/1/127 309/1/126
f 66/1/35 67/1/35 68/1/35 69/1/35 70/1/35 71/1/35 72/1/35 73/1/35 74/1/35 75/1/35 76/1/35 65/1/35
f 77/1/139 240/1/50 260/1/56 314/1/132
f 263/1/37 78/1/115 307/1/123 269/1/38
f 264/1/33 79/1/116 78/1/116 263/1/37
f 80/1/140 79/1/117 264/1/33 262/1/32
f 261/1/31 81/1/118 80/1/118 262/1/32
f 82/1/141 81/1/119 261/1/31 243/1/36
f 305/1/125 259/1/51 240/1/50 77/1/120 82/1/120 243/1/36 244/1/53
f 307/1/123 78/1/35 79/1/35 80/1/35 81/1/35 82/1/35 77/1/35 314/1/132 306/1/124
f 316/1/45 84/1/92 83/1/92 315/1/46
f 315/1/46 83/1/91 85/1/91 317/1/49
f 317/1/49 85/1/88 86/1/88 318/1/142
f 318/1/142 86/1/120 87/1/120 319/1/30
f 319/1/30 87/1/119 88/1/119 320/1/31
f 88/1/143 89/1/118 321/1/32 320/1/31
f 321/1/32 89/1/117 90/1/117 322/1/144
f 324/1/145 322/1/144 90/1/116 91/1/116 323/1/37
f 325/1/146 323/1/37 91/1/115 92/1/115 326/1/147
f 326/1/147 92/1/95 93/1/95 327/1/43 328/1/148
f 327/1/43 93/1/94 94/1/94 329/1/44
f 329/1/44 94/1/93 84/1/93 316/1/45
f 85/1/35 83/1/35 84/1/35 94/1/35 93/1/35 92/1/35 91/1/35 90/1/35 89/1/35 88/1/35 87/1/35 86/1/35
f 142/1/111 141/1/111 140/1/111 139/1/111
f 146/1/113 145/1/113 144/1/113 143/1/113
f 140/1/149 146/1/149 143/1/149 139/1/149
f 142/1/17 139/1/17 143/1/17 144/1/17 218/1/12 217/1/7 216/1/9
f 330/1/150 331/1/91 145/1/62 146/1/62 140/1/62 141/1/62 332/1/94 333/1/151
f 161/1/111 160/1/111 155/1/111 156/1/111
f 337/1/40 338/1/94 155/1/62 160/1/62 162/1/62 157/1/62 335/1/91 334/1/27
f 162/1/113 163/1/113 158/1/113 157/1/113
f 158/1/17 163/1/17 166/1/17 165/1/17 164/1/17 159/1/17
f 322/1/144 292/1/85 282/1/63 281/1/65 283/1/67 284/1/69 285/1/71 286/1/73 287/1/75 288/1/77 289/1/79 290/1/81 291/1/83 324/1/145 323/1/37 325/1/146 237/1/25 236/1/24 279/1/61 167/1/35 166/1/35 163/1/35 162/1/35 160/1/35 161/1/35 169/1/35 280/1/61 233/1/18 234/1/21 351/1/152 342/1/30 341/1/31 340/1/32 346/1/33 345/1/37 344/1/147 347/1/43 343/1/44 350/1/45 352/1/46 349/1/153 231/1/21 232/1/20 235/1/22 238/1/25 328/1/148 327/1/43 329/1/44 316/1/45 315/1/46 317/1/49 318/1/142 319/1/30 320/1/31 321/1/32
f 291/1/83 292/1/85 322/1/144 324/1/145
f 234/1/21 231/1/21 349/1/153 348/1/49 351/1/152
f 280/1/61 169/1/35 168/1/35 167/1/35 279/1/61
f 238/1/25 237/1/25 325/1/146 326/1/147 328/1/148
f 209/1/3 211/1/2 224/1/15 354/1/17 171/1/17 170/1/17 353/1/17
f 167/1/17 168/1/17 172/1/17 171/1/17 354/1/17 355/1/17 174/1/17 173/1/17
f 170/1/17 175/1/17 169/1/17 161/1/17 156/1/17 357/1/17 356/1/17 353/1/17
f 358/1/17 159/1/17 164/1/17 174/1/17 355/1/17 359/1/17
f 172/1/17 168/1/17 169/1/17 175/1/17
f 165/1/17 166/1/17 167/1/17 173/1/17
s 0
f 358/2/111 359/3/111 376/4/111 375/5/111 435/6/111 432/7/111 436/8/111
f 376/4/111 336/9/111 430/10/111 375/5/111
f 336/9/111 383/11/111 386/12/111 430/10/111
f 356/13/113 357/14/113 437/15/113 434/16/113 433/17/113 373/18/113 374/19/113
f 339/20/113 374/19/113 373/18/113 431/21/113
f 388/22/113 390/23/113 339/20/113 431/21/113
f 364/24/35 363/25/35 229/26/35 228/27/35 361/28/35 365/29/35 369/30/35 368/31/35 371/32/35 372/33/35 370/34/35 367/35/35 366/36/35
f 373/37/35 375/38/35 430/38/35 431/37/35
f 389/39/35 388/37/35 431/37/35 430/38/35 386/38/35 384/40/35 391/41/35 392/42/35
f 360/43/35 228/27/35 229/26/35 362/44/35
f 214/45/35 215/46/35 228/27/35 360/43/35 362/44/35 229/26/35 222/47/35 221/48/35
f 433/37/35 214/45/35 213/49/35 220/50/35 221/48/35 435/38/35 375/38/35 373/37/35
f 221/48/35 220/50/35 213/49/35 214/45/35
f 383/51/149 336/51/149 339/52/149 390/52/149 387/53/149 385/54/149
f 223/55/149 208/56/149 209/57/149 353/58/149 356/52/149 374/52/149 376/51/149 359/51/149 355/59/149 354/60/149 224/61/149
f 210/62/149 209/57/149 224/61/149 225/63/149
f 223/55/149 224/61/149 209/57/149 208/56/149
f 374/52/149 339/52/149 336/51/149 376/51/149
s 1
usemtl mat23.002
f 227/1/4 5/1/5 361/1/5 228/1/6
f 6/1/8 5/1/8 227/1/4 226/1/7
f 230/1/10 7/1/11 6/1/11 226/1/7
f 229/1/14 363/1/13 7/1/13 230/1/10
f 364/1/13 8/1/13 7/1/13 363/1/13
f 8/1/11 9/1/11 6/1/11 7/1/11
f 9/1/8 10/1/8 5/1/8 6/1/8
f 361/1/5 5/1/5 10/1/5 365/1/5
f 8/1/17 364/1/17 366/1/17
f 367/1/17 11/1/17 9/1/17 8/1/17 366/1/17
f 10/1/17 9/1/17 11/1/17 368/1/17 369/1/17
f 10/1/17 369/1/17 365/1/17
f 370/1/1 12/1/1 11/1/1 367/1/1
f 368/1/16 11/1/16 12/1/16 371/1/16
f 12/1/17 370/1/17 372/1/17
f 12/1/17 372/1/17 371/1/17
f 96/1/113 95/1/113 334/1/27 335/1/91 377/1/91 378/1/91 331/1/91 330/1/150
f 95/1/35 97/1/35 337/1/40 334/1/27
f 337/1/40 97/1/111 98/1/111 333/1/151 332/1/94 380/1/94 379/1/94 381/1/94 382/1/94 338/1/94
f 333/1/151 98/1/149 96/1/149 330/1/150
f 95/1/62 96/1/62 99/1/62 384/1/62 386/1/62 383/1/62 385/1/62
f 387/1/62 97/1/62 95/1/62 385/1/62
f 389/1/62 100/1/62 98/1/62 97/1/62 387/1/62 390/1/62 388/1/62
f 100/1/62 99/1/62 96/1/62 98/1/62
f 384/1/111 99/1/111 101/1/111 391/1/111
f 392/1/113 102/1/113 100/1/113 389/1/113
f 102/1/35 101/1/35 99/1/35 100/1/35
f 393/1/154 104/1/16 103/1/16 394/1/155
f 395/1/156 105/1/157 104/1/157 393/1/154
f 106/1/158 105/1/159 395/1/156 396/1/160
f 107/1/161 106/1/162 396/1/160 397/1/163
f 398/1/164 108/1/13 107/1/13 397/1/163
f 399/1/165 109/1/11 108/1/11 398/1/164
f 400/1/166 110/1/8 109/1/8 399/1/165
f 401/1/167 111/1/5 110/1/5 400/1/166
f 402/1/168 112/1/169 111/1/169 401/1/167
f 403/1/170 113/1/171 112/1/171 402/1/168
f 405/1/172 114/1/173 113/1/173 403/1/170 404/1/174
f 103/1/175 114/1/1 405/1/172 394/1/155
f 103/1/62 104/1/62 105/1/62 106/1/62 107/1/62 108/1/62 109/1/62 110/1/62 111/1/62 112/1/62 113/1/62 114/1/62
f 406/1/176 116/1/16 115/1/16 407/1/177
f 408/1/156 117/1/157 116/1/157 406/1/176
f 118/1/178 117/1/159 408/1/156 409/1/160
f 119/1/161 118/1/162 409/1/160 410/1/179
f 411/1/164 120/1/13 119/1/13 410/1/179
f 412/1/165 121/1/11 120/1/11 411/1/164
f 413/1/180 122/1/8 121/1/8 412/1/165
f 414/1/181 123/1/5 122/1/5 413/1/180
f 415/1/168 124/1/169 123/1/169 414/1/181
f 416/1/170 125/1/171 124/1/171 415/1/168
f 417/1/172 126/1/173 125/1/173 416/1/170
f 407/1/177 115/1/1 126/1/1 417/1/172
f 115/1/62 116/1/62 117/1/62 118/1/62 119/1/62 120/1/62 121/1/62 122/1/62 123/1/62 124/1/62 125/1/62 126/1/62
f 418/1/154 128/1/16 127/1/16 419/1/177
f 129/1/182 128/1/157 418/1/154 420/1/183
f 130/1/158 129/1/159 420/1/183 421/1/160
f 131/1/161 130/1/162 421/1/160 422/1/163
f 132/1/184 131/1/13 422/1/163 423/1/185
f 424/1/165 133/1/11 132/1/11 423/1/185
f 425/1/166 134/1/8 133/1/8 424/1/165
f 426/1/167 135/1/5 134/1/5 425/1/166
f 427/1/168 136/1/169 135/1/169 426/1/167
f 428/1/170 137/1/171 136/1/171 427/1/168
f 429/1/172 138/1/173 137/1/173 428/1/170
f 419/1/177 127/1/1 138/1/1 429/1/172
f 127/1/62 128/1/62 129/1/62 130/1/62 131/1/62 132/1/62 133/1/62 134/1/62 135/1/62 136/1/62 137/1/62 138/1/62
f 148/1/111 147/1/111 141/1/111 142/1/111
f 149/1/62 145/1/62 331/1/91 378/1/91
f 141/1/62 147/1/62 380/1/94 332/1/94
f 149/1/113 150/1/113 144/1/113 145/1/113
f 434/1/17 148/1/17 142/1/17 216/1/9 212/1/4 214/1/6 433/1/17
f 219/1/10 218/1/12 144/1/17 150/1/17 432/1/17 435/1/17 221/1/14
f 156/1/111 155/1/111 151/1/111 152/1/111
f 335/1/91 157/1/62 153/1/62 377/1/91
f 151/1/62 155/1/62 338/1/94 382/1/94
f 157/1/113 158/1/113 154/1/113 153/1/113
f 156/1/17 152/1/17 437/1/17 357/1/17
f 154/1/17 158/1/17 159/1/17 358/1/17 436/1/17
f 185/1/113 184/1/113 180/1/113 181/1/113
f 184/1/186 186/1/186 182/1/186 180/1/186
f 186/1/111 187/1/111 183/1/111 182/1/111
f 187/1/187 185/1/187 181/1/187 183/1/187
f 187/1/17 186/1/17 184/1/17 185/1/17
f 205/1/149 204/1/149 200/1/149 201/1/149
f 204/1/111 206/1/111 202/1/111 200/1/111
f 206/1/35 207/1/35 203/1/35 202/1/35
f 207/1/113 205/1/113 201/1/113 203/1/113
f 207/1/17 206/1/17 204/1/17 205/1/17
usemtl mat25.002
f 391/1/62 101/1/62 102/1/62 392/1/62
usemtl mat8.001
f 350/1/45 18/1/92 17/1/92 352/1/46
f 352/1/46 17/1/91 19/1/91 348/1/49 349/1/153
f 348/1/49 19/1/88 20/1/88 351/1/152
f 351/1/152 20/1/120 21/1/120 342/1/30
f 342/1/30 21/1/119 22/1/119 341/1/31
f 341/1/31 22/1/118 23/1/118 340/1/32
f 340/1/32 23/1/117 24/1/117 346/1/33
f 346/1/33 24/1/116 25/1/116 345/1/37
f 345/1/37 25/1/115 26/1/115 344/1/147
f 344/1/147 26/1/95 27/1/95 347/1/43
f 347/1/43 27/1/94 28/1/94 343/1/44
f 343/1/44 28/1/93 18/1/93 350/1/45
f 17/1/35 18/1/35 28/1/35 27/1/35 26/1/35 25/1/35 24/1/35 23/1/35 22/1/35 21/1/35 20/1/35 19/1/35
usemtl mat20.001
f 152/1/111 151/1/111 147/1/111 148/1/111
f 377/1/91 153/1/62 149/1/62 378/1/91
f 406/1/176 381/1/94 379/1/94 410/1/179 409/1/160 408/1/156
f 420/1/183 414/1/181 413/1/180 394/1/155 405/1/172 404/1/174 423/1/185 422/1/163 421/1/160
f 423/1/185 404/1/174 403/1/170 402/1/168 401/1/167 400/1/166 399/1/165 398/1/164 397/1/163 396/1/160 395/1/156 393/1/154 394/1/155 413/1/180 412/1/165 411/1/164 410/1/179 379/1/94 380/1/94 147/1/62 151/1/62 382/1/94 381/1/94 406/1/176 407/1/177 417/1/172 416/1/170 415/1/168 414/1/181 420/1/183 418/1/154 419/1/177 429/1/172 428/1/170 427/1/168 426/1/167 425/1/166 424/1/165
f 153/1/113 154/1/113 150/1/113 149/1/113
f 152/1/17 148/1/17 434/1/17 437/1/17
f 432/1/17 150/1/17 154/1/17 436/1/17
usemtl mat22.002
f 177/1/113 176/1/113 175/1/113 170/1/113
f 176/1/149 178/1/149 172/1/149 175/1/149
f 178/1/111 179/1/111 171/1/111 172/1/111
f 179/1/35 177/1/35 170/1/35 171/1/35
f 181/1/17 180/1/17 176/1/17 177/1/17
f 180/1/17 182/1/17 178/1/17 176/1/17
f 182/1/17 183/1/17 179/1/17 178/1/17
f 183/1/17 181/1/17 177/1/17 179/1/17
f 189/1/188 188/1/188 165/1/188 173/1/188
f 188/1/111 190/1/111 164/1/111 165/1/111
f 190/1/189 191/1/189 174/1/189 164/1/189
f 191/1/113 189/1/113 173/1/113 174/1/113
f 193/1/17 192/1/17 188/1/17 189/1/17
f 192/1/17 194/1/17 190/1/17 188/1/17
f 194/1/17 195/1/17 191/1/17 190/1/17
f 195/1/17 193/1/17 189/1/17 191/1/17
f 197/1/149 196/1/149 192/1/149 193/1/149
f 196/1/111 198/1/111 194/1/111 192/1/111
f 198/1/35 199/1/35 195/1/35 194/1/35
f 199/1/113 197/1/113 193/1/113 195/1/113
f 201/1/17 200/1/17 196/1/17 197/1/17
f 200/1/17 202/1/17 198/1/17 196/1/17
f 202/1/17 203/1/17 199/1/17 198/1/17
f 203/1/17 201/1/17 197/1/17 199/1/17
